<svg width="18" height="18" viewBox="0 0 18 18" fill="none" xmlns="http://www.w3.org/2000/svg">
<path fill-rule="evenodd" clip-rule="evenodd" d="M6.31745 0.324806C3.34246 0.997381 1.00813 3.28371 0.291932 6.22642C-0.0996878 7.83551 -0.0961099 9.52868 0.29551 11.1378C1.0229 14.1265 3.16258 16.6138 6.03293 17.7728L6.15805 17.8233C7.40016 18.3249 8.82306 17.7208 9.33273 16.4902C9.473 16.1515 9.80701 15.9268 10.1761 15.9268H11.2999C14.3564 15.9268 17.0154 13.8499 17.7328 10.9021C18.0891 9.43822 18.0891 7.91126 17.7328 6.44741L17.6387 6.06088C16.9472 3.21958 14.6933 1.01204 11.8209 0.362642L11.4173 0.271414C9.81661 -0.0904711 8.15434 -0.0904714 6.55362 0.271413L6.31745 0.324806ZM5.50194 5.36669C5.11716 5.36669 4.80524 5.67616 4.80524 6.05792C4.80524 6.43968 5.11716 6.74916 5.50194 6.74916H11.8884C12.2732 6.74916 12.5851 6.43968 12.5851 6.05792C12.5851 5.67616 12.2732 5.36669 11.8884 5.36669H5.50194ZM6.66312 8.82285C6.27834 8.82285 5.96642 9.13233 5.96642 9.51409C5.96642 9.89585 6.27834 10.2053 6.66312 10.2053H10.7272C11.112 10.2053 11.4239 9.89585 11.4239 9.51409C11.4239 9.13233 11.112 8.82285 10.7272 8.82285H6.66312Z" fill="#707070"/>
</svg>
