<?xml version="1.0" standalone="no"?>
<!DOCTYPE svg PUBLIC "-//W3C//DTD SVG 20010904//EN"
 "http://www.w3.org/TR/2001/REC-SVG-20010904/DTD/svg10.dtd">
<svg version="1.0" xmlns="http://www.w3.org/2000/svg"
 width="447.000000pt" height="447.000000pt" viewBox="0 0 447.000000 447.000000"
 preserveAspectRatio="xMidYMid meet">
<metadata>
Created by potrace 1.14, written by Peter Selinger 2001-2017
</metadata>
<g transform="translate(0.000000,447.000000) scale(0.100000,-0.100000)"
fill="#000000" stroke="none">
<path d="M2489 4386 c-2 -2 -45 -6 -95 -9 -124 -8 -368 -50 -532 -93 -630
-161 -1178 -493 -1513 -914 -147 -185 -263 -427 -313 -650 -26 -116 -28 -133
-31 -300 -3 -126 1 -190 15 -270 62 -363 217 -681 486 -1000 452 -537 1150
-931 1834 -1036 171 -26 523 -25 700 2 143 22 242 45 359 86 438 150 751 458
915 901 62 165 115 397 131 567 3 36 8 88 11 115 7 66 7 432 0 515 -32 363
-87 618 -194 900 -115 306 -255 526 -471 740 -240 239 -511 375 -854 430 -95
15 -435 27 -448 16z m401 -29 c14 -3 43 -8 65 -12 91 -13 154 -29 148 -38 -3
-6 -1 -7 5 -3 13 8 225 -61 230 -75 2 -5 10 -9 18 -9 29 0 253 -139 325 -202
274 -240 466 -537 599 -926 41 -120 98 -349 114 -457 14 -90 27 -192 31 -255
4 -41 8 -97 11 -125 6 -73 6 -367 -1 -465 -5 -74 -17 -165 -40 -315 -4 -22
-11 -58 -16 -80 -6 -22 -13 -51 -16 -65 -5 -27 -31 -115 -40 -140 -3 -8 -7
-19 -8 -25 -18 -72 -159 -365 -177 -365 -4 0 -8 -5 -8 -10 0 -31 -154 -211
-252 -295 -162 -140 -389 -256 -613 -314 -81 -21 -239 -48 -345 -59 -170 -19
-573 -3 -650 26 -8 3 -18 4 -22 4 -17 -4 -258 60 -380 101 -144 48 -171 59
-358 150 -476 231 -902 594 -1166 997 -68 104 -170 293 -176 325 -2 11 -6 22
-9 25 -17 15 -81 215 -104 324 -25 125 -26 133 -30 291 -2 129 2 202 20 290 2
11 9 45 14 75 53 265 240 582 485 823 116 114 334 284 441 343 11 6 49 28 84
49 73 43 305 156 372 180 249 92 505 167 649 190 19 3 60 10 90 15 92 15 121
19 215 26 50 3 92 8 93 10 6 5 375 -4 402 -9z"/>
<path d="M2060 2320 c0 -396 1 -420 18 -420 10 0 96 45 192 101 96 55 193 111
215 124 22 12 91 52 154 89 62 36 117 66 121 66 13 0 42 39 36 49 -6 9 -151
95 -276 164 -30 16 -59 33 -65 37 -23 17 -189 110 -196 110 -5 0 -9 5 -9 10 0
6 -4 10 -9 10 -5 0 -40 18 -79 40 -38 22 -76 40 -86 40 -15 0 -16 -36 -16
-420z"/>
</g>
</svg>
